# xmcd CD database file generated by Grip 3.3.1
# 
# Track frame offsets:
#       150
#       11477
#       22907
#       35093
#       46803
#       65972
#       78981
#       91675
#       103461
#       114175
#       124585
#       137494
#       149093
#       161119
#       174223
#       187555
#       203546
#       223250
#       242586
#       260647
# 
# Disc length: 3686 seconds
# 
# Revision: 1
# Processed by: cddbd v1.5.2PL0 Copyright (c) Steve Scherf et al.
# Submitted via: Grip 3.3.1
# 
DISCID=100e6414
DTITLE=Various Artist - Blues Brother Soul Sister
DYEAR=2005
DGENRE=Blues
TTITLE0=Otis Reading - These Arms of Mine
TTITLE1=Erma Franklin - Piece of my Heart
TTITLE2=John Lee Hooker - I'm in the Mood
TTITLE3=Wilson Pickett - In the Midnight Hour
TTITLE4=Marvin Gaye - Abraham, Martin and John
TTITLE5=Carla Thomas - B-A-B-Y
TTITLE6=Al Green - Tired of Being Alone
TTITLE7=Judy Clay and William Bell - Private Number
TTITLE8=Aretha Franklin - Respect
TTITLE9=Arthur Conley - Sweet Soul Music
TTITLE10=Booker T. and the MG's - Green Onions
TTITLE11=Maxine Brown - Oh No not My Baby
TTITLE12=The Drifters - Under the Boardwalk
TTITLE13=Elmore James - Dust my Broom
TTITLE14=Ben E. King - Stand by me
TTITLE15=Soul Children - I'll be the Other Woman
TTITLE16=Little Milton - Stormy Monday
TTITLE17=Gladys Knight and the Pips - Midnight Train to Georgia
TTITLE18=James Brown - It's A Man's Man's World (live)
TTITLE19=Lorraine Ellison - Stay with me
EXTD=YEAR: 2005
EXTT0=
EXTT1=
EXTT2=
EXTT3=
EXTT4=
EXTT5=
EXTT6=
EXTT7=
EXTT8=
EXTT9=
EXTT10=
EXTT11=
EXTT12=
EXTT13=
EXTT14=
EXTT15=
EXTT16=
EXTT17=
EXTT18=
EXTT19=
PLAYORDER=
